<svg width="23" height="22" viewBox="0 0 23 22" fill="none" xmlns="http://www.w3.org/2000/svg">
<g id="book-square">
<g id="vuesax/bold/book-square">
<g id="book-square_2">
<path id="Vector" d="M14.8679 1.83301H7.18618C3.84952 1.83301 1.86035 3.82217 1.86035 7.15884V14.8313C1.86035 18.1772 3.84952 20.1663 7.18618 20.1663H14.8587C18.1954 20.1663 20.1845 18.1772 20.1845 14.8405V7.15884C20.1937 3.82217 18.2045 1.83301 14.8679 1.83301ZM10.5687 15.8122C10.5687 16.1422 10.2387 16.3622 9.93619 16.2338C8.82702 15.7572 7.37868 15.3172 6.37035 15.1888L6.19619 15.1705C5.63702 15.0972 5.17868 14.5747 5.17868 14.0063V6.94801C5.17868 6.24217 5.74702 5.71967 6.44369 5.77467C7.58952 5.86634 9.28535 6.41634 10.3487 7.02134C10.4954 7.10384 10.5687 7.25967 10.5687 7.41551V15.8122ZM16.8754 13.9972C16.8754 14.5655 16.417 15.088 15.8579 15.1613L15.6654 15.1797C14.6662 15.3172 13.227 15.748 12.1179 16.2155C11.8154 16.3438 11.4854 16.1238 11.4854 15.7938V7.40634C11.4854 7.24134 11.5679 7.08551 11.7145 7.00301C12.7779 6.40717 14.437 5.87551 15.5645 5.77467H15.6012C16.307 5.77467 16.8754 6.34301 16.8754 7.04884V13.9972Z" fill="#FCFCFC"/>
</g>
</g>
</g>
</svg>
